<svg id="svg" version="1.1" xmlns="http://www.w3.org/2000/svg" xmlns:xlink="http://www.w3.org/1999/xlink" width="400" height="400" viewBox="0, 0, 400,400"><g id="svgg"><path id="path0" d="M175.300 32.276 C 175.685 32.376,176.315 32.376,176.700 32.276 C 177.085 32.175,176.770 32.093,176.000 32.093 C 175.230 32.093,174.915 32.175,175.300 32.276 M177.720 32.588 C 176.806 32.985,175.264 33.099,172.320 32.984 C 170.054 32.896,167.745 32.914,167.189 33.024 L 166.177 33.225 166.208 99.858 L 166.238 166.492 145.419 166.220 C 133.433 166.064,124.439 165.790,124.220 165.574 C 123.766 165.128,87.200 165.054,87.200 165.500 C 87.200 165.665,95.332 165.751,105.272 165.692 C 115.211 165.632,123.482 165.722,123.652 165.892 C 124.142 166.382,65.142 166.088,64.200 165.596 C 63.698 165.334,60.490 165.222,55.600 165.298 L 47.800 165.418 55.676 165.509 C 69.339 165.667,64.574 166.195,48.486 166.307 C 39.998 166.366,32.964 166.503,32.854 166.612 C 32.316 167.151,32.024 275.168,32.514 292.698 C 32.633 296.964,32.569 299.904,32.359 299.775 C 31.787 299.421,31.943 300.000,32.596 300.653 C 33.112 301.169,37.533 301.259,65.896 301.324 C 92.797 301.387,98.580 301.494,98.490 301.930 C 98.430 302.221,98.568 302.344,98.797 302.202 C 99.026 302.061,99.095 301.754,98.951 301.520 C 98.799 301.274,98.922 301.181,99.244 301.298 C 99.550 301.409,99.751 301.716,99.690 301.980 C 99.630 302.244,99.768 302.344,99.997 302.202 C 100.226 302.061,100.302 301.765,100.166 301.546 C 100.028 301.322,100.245 301.202,100.660 301.273 C 101.376 301.396,101.398 300.300,101.336 268.105 L 101.273 234.809 133.832 234.705 L 166.392 234.600 166.143 261.000 C 166.006 275.520,166.030 305.533,166.196 327.695 L 166.497 367.991 198.149 368.095 C 215.557 368.153,230.929 368.146,232.308 368.081 L 234.816 367.961 234.791 306.681 C 234.777 272.976,234.774 243.015,234.783 240.100 L 234.800 234.800 267.234 234.800 L 299.668 234.800 299.334 243.900 C 298.898 255.787,298.908 277.921,299.357 291.010 L 299.713 301.419 301.501 301.314 C 302.945 301.230,303.205 301.312,302.851 301.738 C 302.523 302.134,302.556 302.267,302.984 302.267 C 303.298 302.267,303.521 302.072,303.478 301.833 C 303.333 301.025,365.183 301.061,366.077 301.870 C 366.748 302.477,366.800 302.473,366.800 301.819 C 366.800 301.356,367.006 301.194,367.401 301.345 C 367.935 301.550,367.991 293.990,367.901 234.014 L 367.800 166.451 354.340 166.326 C 341.021 166.201,336.150 165.681,346.724 165.513 L 352.200 165.425 346.800 165.300 C 343.828 165.230,341.040 165.349,340.600 165.563 C 339.535 166.081,234.800 166.439,234.800 165.925 C 234.800 165.720,234.968 165.656,235.172 165.783 C 235.377 165.909,235.675 165.802,235.834 165.545 C 236.008 165.263,235.951 165.183,235.689 165.345 C 234.833 165.874,234.809 164.054,234.795 98.945 L 234.782 33.000 207.736 33.130 C 192.860 33.201,180.219 33.111,179.645 32.930 C 179.050 32.742,187.209 32.511,198.600 32.394 L 218.600 32.189 198.800 32.110 C 182.637 32.046,178.765 32.134,177.720 32.588 M165.293 55.600 C 165.293 56.370,165.375 56.685,165.476 56.300 C 165.576 55.915,165.576 55.285,165.476 54.900 C 165.375 54.515,165.293 54.830,165.293 55.600 M165.390 97.200 C 165.390 113.370,165.439 119.985,165.500 111.900 C 165.560 103.815,165.560 90.585,165.500 82.500 C 165.439 74.415,165.390 81.030,165.390 97.200 M165.293 158.400 C 165.293 159.170,165.375 159.485,165.476 159.100 C 165.576 158.715,165.576 158.085,165.476 157.700 C 165.375 157.315,165.293 157.630,165.293 158.400 M126.399 165.500 C 126.399 165.665,129.144 165.754,132.499 165.697 C 143.646 165.509,144.704 165.362,135.500 165.280 C 130.495 165.236,126.400 165.335,126.399 165.500 M268.400 165.492 C 294.914 165.769,315.600 165.772,315.600 165.500 C 315.600 165.335,302.685 165.242,286.900 165.293 C 271.115 165.344,262.790 165.434,268.400 165.492 M32.700 244.500 C 32.638 251.155,32.588 245.710,32.588 232.400 C 32.588 219.090,32.638 213.645,32.700 220.300 C 32.761 226.955,32.761 237.845,32.700 244.500 M165.293 242.400 C 165.293 243.170,165.375 243.485,165.476 243.100 C 165.576 242.715,165.576 242.085,165.476 241.700 C 165.375 241.315,165.293 241.630,165.293 242.400 M299.499 273.500 C 299.433 277.185,299.379 274.170,299.379 266.800 C 299.379 259.430,299.433 256.415,299.499 260.100 C 299.565 263.785,299.565 269.815,299.499 273.500 M165.392 291.400 C 165.392 311.860,165.441 320.171,165.500 309.870 C 165.559 299.568,165.559 282.828,165.500 272.670 C 165.440 262.511,165.392 270.940,165.392 291.400 " stroke="none" fill="#dce48c" fill-rule="evenodd"></path><path id="path1" d="M165.956 33.000 C 165.546 33.641,165.437 46.808,165.407 99.201 C 165.387 135.171,165.241 164.810,165.083 165.066 C 164.924 165.322,165.021 165.623,165.298 165.734 C 165.610 165.860,165.544 165.949,165.124 165.968 C 164.752 165.986,164.336 165.820,164.200 165.600 C 163.927 165.158,153.434 165.139,136.699 165.548 C 131.034 165.687,126.399 165.665,126.399 165.500 C 126.400 165.335,125.824 165.200,125.120 165.200 C 124.321 165.200,123.983 165.341,124.220 165.574 C 124.439 165.790,133.433 166.064,145.419 166.220 L 166.238 166.492 166.208 99.846 C 166.181 40.344,166.243 33.192,166.789 33.125 C 167.589 33.026,176.653 32.830,178.200 32.878 C 192.743 33.330,235.152 33.018,234.597 32.463 C 233.801 31.668,166.472 32.194,165.956 33.000 M234.642 34.300 C 234.714 34.905,234.782 64.852,234.791 100.848 L 234.809 166.296 287.505 166.106 C 317.616 165.997,340.363 165.762,340.580 165.558 C 340.804 165.347,335.746 165.200,328.280 165.200 C 321.306 165.200,315.600 165.335,315.600 165.500 C 315.600 165.665,297.743 165.674,275.916 165.520 C 253.742 165.364,236.049 165.393,235.816 165.587 C 235.528 165.826,235.433 145.508,235.507 99.566 C 235.597 43.369,235.529 33.200,235.062 33.200 C 234.695 33.200,234.554 33.568,234.642 34.300 M32.977 165.912 L 32.154 166.604 32.177 233.068 C 32.190 269.624,32.290 299.623,32.400 299.733 C 32.510 299.843,32.600 269.993,32.600 233.400 C 32.600 196.807,32.702 166.765,32.826 166.640 C 32.951 166.516,40.005 166.366,48.503 166.307 C 57.000 166.248,63.828 166.080,63.676 165.933 C 62.942 165.222,33.821 165.202,32.977 165.912 M64.242 165.602 C 64.501 165.861,75.119 166.038,94.302 166.102 C 110.614 166.156,123.821 166.061,123.652 165.892 C 123.482 165.722,115.211 165.632,105.272 165.692 C 95.332 165.751,87.200 165.665,87.200 165.500 C 87.200 165.335,81.944 165.200,75.520 165.200 C 67.703 165.200,63.973 165.333,64.242 165.602 M346.808 165.500 C 336.628 165.735,340.855 166.200,354.323 166.326 L 367.800 166.451 367.901 233.849 C 367.968 278.522,368.137 301.163,368.401 300.999 C 369.171 300.523,368.927 167.366,368.154 166.186 L 367.508 165.200 359.854 165.287 C 355.644 165.335,349.773 165.431,346.808 165.500 M133.700 234.700 C 111.879 234.770,101.200 234.939,101.200 235.214 C 101.200 235.490,111.577 235.611,133.041 235.586 C 150.553 235.565,164.998 235.665,165.141 235.808 C 165.283 235.950,165.400 265.567,165.400 301.622 L 165.400 367.177 166.224 368.002 C 167.439 369.217,234.107 369.335,235.026 368.124 C 235.669 367.276,235.776 365.356,235.200 365.000 C 234.814 364.761,234.760 364.953,234.669 366.900 C 234.608 368.198,234.108 368.214,198.149 368.095 L 166.497 367.991 166.196 327.695 C 166.030 305.533,166.006 275.475,166.144 260.900 C 166.281 246.325,166.350 234.444,166.297 234.498 C 166.244 234.551,151.575 234.642,133.700 234.700 M234.800 235.191 C 234.800 235.442,246.204 235.586,266.665 235.595 C 289.423 235.605,298.682 235.736,299.065 236.054 C 299.483 236.401,299.600 236.313,299.600 235.649 L 299.600 234.800 267.200 234.800 C 246.382 234.800,234.800 234.940,234.800 235.191 M299.100 237.028 C 298.935 237.196,298.827 240.948,298.861 245.367 L 298.921 253.400 299.261 246.000 C 299.620 238.201,299.590 236.530,299.100 237.028 M101.482 238.667 C 101.265 239.019,101.347 262.489,101.633 281.400 C 101.706 286.240,101.867 278.770,101.991 264.800 C 102.198 241.422,102.125 237.628,101.482 238.667 M234.730 242.025 C 234.414 251.184,234.862 362.948,235.213 362.393 C 235.709 361.609,235.720 239.609,235.224 238.825 C 234.987 238.450,234.815 239.562,234.730 242.025 M299.379 266.800 C 299.379 274.170,299.433 277.185,299.499 273.500 C 299.565 269.815,299.565 263.785,299.499 260.100 C 299.433 256.415,299.379 259.430,299.379 266.800 M298.869 290.300 C 298.824 296.812,298.942 300.400,299.200 300.400 C 299.653 300.400,299.663 293.987,299.221 285.600 C 298.961 280.645,298.931 281.033,298.869 290.300 M101.720 294.800 C 101.720 296.010,101.795 296.505,101.887 295.900 C 101.978 295.295,101.978 294.305,101.887 293.700 C 101.795 293.095,101.720 293.590,101.720 294.800 M32.641 301.406 L 33.300 302.412 65.950 302.306 C 87.548 302.236,98.532 302.065,98.400 301.800 C 98.270 301.539,86.860 301.374,65.608 301.324 C 43.057 301.272,32.973 301.118,32.875 300.824 C 32.797 300.591,32.564 300.400,32.357 300.400 C 32.151 300.400,32.278 300.853,32.641 301.406 M98.933 301.837 C 98.933 302.166,99.258 302.313,99.767 302.217 C 100.225 302.130,100.746 302.046,100.924 302.030 C 101.102 302.013,101.150 301.843,101.031 301.650 C 100.684 301.089,98.933 301.246,98.933 301.837 M299.785 301.624 C 299.378 302.283,300.919 302.317,333.365 302.378 C 363.090 302.433,366.478 302.376,366.023 301.828 C 365.462 301.151,300.201 300.951,299.785 301.624 M366.800 301.800 C 366.800 302.167,366.994 302.402,367.230 302.323 C 367.466 302.245,367.660 302.009,367.660 301.800 C 367.660 301.591,367.466 301.356,367.230 301.277 C 366.994 301.198,366.800 301.433,366.800 301.800 " stroke="none" fill="#e0e48c" fill-rule="evenodd"></path><path id="path2" d="M165.956 33.000 C 165.546 33.641,165.437 46.808,165.407 99.201 C 165.387 135.171,165.241 164.810,165.083 165.066 C 164.924 165.322,165.021 165.623,165.298 165.734 C 165.610 165.860,165.544 165.949,165.124 165.968 C 164.752 165.986,164.336 165.820,164.200 165.600 C 163.927 165.158,153.434 165.139,136.699 165.548 C 131.034 165.687,126.399 165.665,126.399 165.500 C 126.400 165.335,125.824 165.200,125.120 165.200 C 124.321 165.200,123.983 165.341,124.220 165.574 C 124.439 165.790,133.433 166.064,145.419 166.220 L 166.238 166.492 166.208 99.846 C 166.181 40.344,166.243 33.192,166.789 33.125 C 167.589 33.026,176.653 32.830,178.200 32.878 C 192.743 33.330,235.152 33.018,234.597 32.463 C 233.801 31.668,166.472 32.194,165.956 33.000 M234.642 34.300 C 234.714 34.905,234.782 64.852,234.791 100.848 L 234.809 166.296 287.505 166.106 C 317.616 165.997,340.363 165.762,340.580 165.558 C 340.804 165.347,335.746 165.200,328.280 165.200 C 321.306 165.200,315.600 165.335,315.600 165.500 C 315.600 165.665,297.743 165.674,275.916 165.520 C 253.742 165.364,236.049 165.393,235.816 165.587 C 235.528 165.826,235.433 145.508,235.507 99.566 C 235.597 43.369,235.529 33.200,235.062 33.200 C 234.695 33.200,234.554 33.568,234.642 34.300 M32.977 165.912 L 32.154 166.604 32.177 233.068 C 32.190 269.624,32.290 299.623,32.400 299.733 C 32.510 299.843,32.600 269.993,32.600 233.400 C 32.600 196.807,32.702 166.765,32.826 166.640 C 32.951 166.516,40.005 166.366,48.503 166.307 C 57.000 166.248,63.828 166.080,63.676 165.933 C 62.942 165.222,33.821 165.202,32.977 165.912 M64.242 165.602 C 64.501 165.861,75.119 166.038,94.302 166.102 C 110.614 166.156,123.821 166.061,123.652 165.892 C 123.482 165.722,115.211 165.632,105.272 165.692 C 95.332 165.751,87.200 165.665,87.200 165.500 C 87.200 165.335,81.944 165.200,75.520 165.200 C 67.703 165.200,63.973 165.333,64.242 165.602 M346.808 165.500 C 336.628 165.735,340.855 166.200,354.323 166.326 L 367.800 166.451 367.901 233.849 C 367.968 278.522,368.137 301.163,368.401 300.999 C 369.171 300.523,368.927 167.366,368.154 166.186 L 367.508 165.200 359.854 165.287 C 355.644 165.335,349.773 165.431,346.808 165.500 M133.700 234.700 C 111.879 234.770,101.200 234.939,101.200 235.214 C 101.200 235.490,111.577 235.611,133.041 235.586 C 150.553 235.565,164.998 235.665,165.141 235.808 C 165.283 235.950,165.400 265.567,165.400 301.622 L 165.400 367.177 166.224 368.002 C 167.439 369.217,234.107 369.335,235.026 368.124 C 235.669 367.276,235.776 365.356,235.200 365.000 C 234.814 364.761,234.760 364.953,234.669 366.900 C 234.608 368.198,234.108 368.214,198.149 368.095 L 166.497 367.991 166.196 327.695 C 166.030 305.533,166.006 275.475,166.144 260.900 C 166.281 246.325,166.350 234.444,166.297 234.498 C 166.244 234.551,151.575 234.642,133.700 234.700 M234.800 235.191 C 234.800 235.442,246.204 235.586,266.665 235.595 C 289.423 235.605,298.682 235.736,299.065 236.054 C 299.483 236.401,299.600 236.313,299.600 235.649 L 299.600 234.800 267.200 234.800 C 246.382 234.800,234.800 234.940,234.800 235.191 M299.100 237.028 C 298.935 237.196,298.827 240.948,298.861 245.367 L 298.921 253.400 299.261 246.000 C 299.620 238.201,299.590 236.530,299.100 237.028 M101.482 238.667 C 101.265 239.019,101.347 262.489,101.633 281.400 C 101.706 286.240,101.867 278.770,101.991 264.800 C 102.198 241.422,102.125 237.628,101.482 238.667 M234.730 242.025 C 234.414 251.184,234.862 362.948,235.213 362.393 C 235.709 361.609,235.720 239.609,235.224 238.825 C 234.987 238.450,234.815 239.562,234.730 242.025 M299.379 266.800 C 299.379 274.170,299.433 277.185,299.499 273.500 C 299.565 269.815,299.565 263.785,299.499 260.100 C 299.433 256.415,299.379 259.430,299.379 266.800 M298.869 290.300 C 298.824 296.812,298.942 300.400,299.200 300.400 C 299.653 300.400,299.663 293.987,299.221 285.600 C 298.961 280.645,298.931 281.033,298.869 290.300 M101.720 294.800 C 101.720 296.010,101.795 296.505,101.887 295.900 C 101.978 295.295,101.978 294.305,101.887 293.700 C 101.795 293.095,101.720 293.590,101.720 294.800 M32.641 301.406 L 33.300 302.412 65.950 302.306 C 87.548 302.236,98.532 302.065,98.400 301.800 C 98.270 301.539,86.860 301.374,65.608 301.324 C 43.057 301.272,32.973 301.118,32.875 300.824 C 32.797 300.591,32.564 300.400,32.357 300.400 C 32.151 300.400,32.278 300.853,32.641 301.406 M98.933 301.837 C 98.933 302.166,99.258 302.313,99.767 302.217 C 100.225 302.130,100.746 302.046,100.924 302.030 C 101.102 302.013,101.150 301.843,101.031 301.650 C 100.684 301.089,98.933 301.246,98.933 301.837 M299.785 301.624 C 299.378 302.283,300.919 302.317,333.365 302.378 C 363.090 302.433,366.478 302.376,366.023 301.828 C 365.462 301.151,300.201 300.951,299.785 301.624 M366.800 301.800 C 366.800 302.167,366.994 302.402,367.230 302.323 C 367.466 302.245,367.660 302.009,367.660 301.800 C 367.660 301.591,367.466 301.356,367.230 301.277 C 366.994 301.198,366.800 301.433,366.800 301.800 " stroke="none" fill="#e0e48c" fill-rule="evenodd"></path><path id="path3" d="M165.956 33.000 C 165.546 33.641,165.437 46.808,165.407 99.201 C 165.387 135.171,165.241 164.810,165.083 165.066 C 164.924 165.322,165.021 165.623,165.298 165.734 C 165.610 165.860,165.544 165.949,165.124 165.968 C 164.752 165.986,164.336 165.820,164.200 165.600 C 163.927 165.158,153.434 165.139,136.699 165.548 C 131.034 165.687,126.399 165.665,126.399 165.500 C 126.400 165.335,125.824 165.200,125.120 165.200 C 124.321 165.200,123.983 165.341,124.220 165.574 C 124.439 165.790,133.433 166.064,145.419 166.220 L 166.238 166.492 166.208 99.846 C 166.181 40.344,166.243 33.192,166.789 33.125 C 167.589 33.026,176.653 32.830,178.200 32.878 C 192.743 33.330,235.152 33.018,234.597 32.463 C 233.801 31.668,166.472 32.194,165.956 33.000 M234.642 34.300 C 234.714 34.905,234.782 64.852,234.791 100.848 L 234.809 166.296 287.505 166.106 C 317.616 165.997,340.363 165.762,340.580 165.558 C 340.804 165.347,335.746 165.200,328.280 165.200 C 321.306 165.200,315.600 165.335,315.600 165.500 C 315.600 165.665,297.743 165.674,275.916 165.520 C 253.742 165.364,236.049 165.393,235.816 165.587 C 235.528 165.826,235.433 145.508,235.507 99.566 C 235.597 43.369,235.529 33.200,235.062 33.200 C 234.695 33.200,234.554 33.568,234.642 34.300 M32.977 165.912 L 32.154 166.604 32.177 233.068 C 32.190 269.624,32.290 299.623,32.400 299.733 C 32.510 299.843,32.600 269.993,32.600 233.400 C 32.600 196.807,32.702 166.765,32.826 166.640 C 32.951 166.516,40.005 166.366,48.503 166.307 C 57.000 166.248,63.828 166.080,63.676 165.933 C 62.942 165.222,33.821 165.202,32.977 165.912 M64.242 165.602 C 64.501 165.861,75.119 166.038,94.302 166.102 C 110.614 166.156,123.821 166.061,123.652 165.892 C 123.482 165.722,115.211 165.632,105.272 165.692 C 95.332 165.751,87.200 165.665,87.200 165.500 C 87.200 165.335,81.944 165.200,75.520 165.200 C 67.703 165.200,63.973 165.333,64.242 165.602 M346.808 165.500 C 336.628 165.735,340.855 166.200,354.323 166.326 L 367.800 166.451 367.901 233.849 C 367.968 278.522,368.137 301.163,368.401 300.999 C 369.171 300.523,368.927 167.366,368.154 166.186 L 367.508 165.200 359.854 165.287 C 355.644 165.335,349.773 165.431,346.808 165.500 M133.700 234.700 C 111.879 234.770,101.200 234.939,101.200 235.214 C 101.200 235.490,111.577 235.611,133.041 235.586 C 150.553 235.565,164.998 235.665,165.141 235.808 C 165.283 235.950,165.400 265.567,165.400 301.622 L 165.400 367.177 166.224 368.002 C 167.439 369.217,234.107 369.335,235.026 368.124 C 235.669 367.276,235.776 365.356,235.200 365.000 C 234.814 364.761,234.760 364.953,234.669 366.900 C 234.608 368.198,234.108 368.214,198.149 368.095 L 166.497 367.991 166.196 327.695 C 166.030 305.533,166.006 275.475,166.144 260.900 C 166.281 246.325,166.350 234.444,166.297 234.498 C 166.244 234.551,151.575 234.642,133.700 234.700 M234.800 235.191 C 234.800 235.442,246.204 235.586,266.665 235.595 C 289.423 235.605,298.682 235.736,299.065 236.054 C 299.483 236.401,299.600 236.313,299.600 235.649 L 299.600 234.800 267.200 234.800 C 246.382 234.800,234.800 234.940,234.800 235.191 M299.100 237.028 C 298.935 237.196,298.827 240.948,298.861 245.367 L 298.921 253.400 299.261 246.000 C 299.620 238.201,299.590 236.530,299.100 237.028 M101.482 238.667 C 101.265 239.019,101.347 262.489,101.633 281.400 C 101.706 286.240,101.867 278.770,101.991 264.800 C 102.198 241.422,102.125 237.628,101.482 238.667 M234.730 242.025 C 234.414 251.184,234.862 362.948,235.213 362.393 C 235.709 361.609,235.720 239.609,235.224 238.825 C 234.987 238.450,234.815 239.562,234.730 242.025 M299.379 266.800 C 299.379 274.170,299.433 277.185,299.499 273.500 C 299.565 269.815,299.565 263.785,299.499 260.100 C 299.433 256.415,299.379 259.430,299.379 266.800 M298.869 290.300 C 298.824 296.812,298.942 300.400,299.200 300.400 C 299.653 300.400,299.663 293.987,299.221 285.600 C 298.961 280.645,298.931 281.033,298.869 290.300 M101.720 294.800 C 101.720 296.010,101.795 296.505,101.887 295.900 C 101.978 295.295,101.978 294.305,101.887 293.700 C 101.795 293.095,101.720 293.590,101.720 294.800 M32.641 301.406 L 33.300 302.412 65.950 302.306 C 87.548 302.236,98.532 302.065,98.400 301.800 C 98.270 301.539,86.860 301.374,65.608 301.324 C 43.057 301.272,32.973 301.118,32.875 300.824 C 32.797 300.591,32.564 300.400,32.357 300.400 C 32.151 300.400,32.278 300.853,32.641 301.406 M98.933 301.837 C 98.933 302.166,99.258 302.313,99.767 302.217 C 100.225 302.130,100.746 302.046,100.924 302.030 C 101.102 302.013,101.150 301.843,101.031 301.650 C 100.684 301.089,98.933 301.246,98.933 301.837 M299.785 301.624 C 299.378 302.283,300.919 302.317,333.365 302.378 C 363.090 302.433,366.478 302.376,366.023 301.828 C 365.462 301.151,300.201 300.951,299.785 301.624 M366.800 301.800 C 366.800 302.167,366.994 302.402,367.230 302.323 C 367.466 302.245,367.660 302.009,367.660 301.800 C 367.660 301.591,367.466 301.356,367.230 301.277 C 366.994 301.198,366.800 301.433,366.800 301.800 " stroke="none" fill="#e0e48c" fill-rule="evenodd"></path><path id="path4" d="M165.956 33.000 C 165.546 33.641,165.437 46.808,165.407 99.201 C 165.387 135.171,165.241 164.810,165.083 165.066 C 164.924 165.322,165.021 165.623,165.298 165.734 C 165.610 165.860,165.544 165.949,165.124 165.968 C 164.752 165.986,164.336 165.820,164.200 165.600 C 163.927 165.158,153.434 165.139,136.699 165.548 C 131.034 165.687,126.399 165.665,126.399 165.500 C 126.400 165.335,125.824 165.200,125.120 165.200 C 124.321 165.200,123.983 165.341,124.220 165.574 C 124.439 165.790,133.433 166.064,145.419 166.220 L 166.238 166.492 166.208 99.846 C 166.181 40.344,166.243 33.192,166.789 33.125 C 167.589 33.026,176.653 32.830,178.200 32.878 C 192.743 33.330,235.152 33.018,234.597 32.463 C 233.801 31.668,166.472 32.194,165.956 33.000 M234.642 34.300 C 234.714 34.905,234.782 64.852,234.791 100.848 L 234.809 166.296 287.505 166.106 C 317.616 165.997,340.363 165.762,340.580 165.558 C 340.804 165.347,335.746 165.200,328.280 165.200 C 321.306 165.200,315.600 165.335,315.600 165.500 C 315.600 165.665,297.743 165.674,275.916 165.520 C 253.742 165.364,236.049 165.393,235.816 165.587 C 235.528 165.826,235.433 145.508,235.507 99.566 C 235.597 43.369,235.529 33.200,235.062 33.200 C 234.695 33.200,234.554 33.568,234.642 34.300 M32.977 165.912 L 32.154 166.604 32.177 233.068 C 32.190 269.624,32.290 299.623,32.400 299.733 C 32.510 299.843,32.600 269.993,32.600 233.400 C 32.600 196.807,32.702 166.765,32.826 166.640 C 32.951 166.516,40.005 166.366,48.503 166.307 C 57.000 166.248,63.828 166.080,63.676 165.933 C 62.942 165.222,33.821 165.202,32.977 165.912 M64.242 165.602 C 64.501 165.861,75.119 166.038,94.302 166.102 C 110.614 166.156,123.821 166.061,123.652 165.892 C 123.482 165.722,115.211 165.632,105.272 165.692 C 95.332 165.751,87.200 165.665,87.200 165.500 C 87.200 165.335,81.944 165.200,75.520 165.200 C 67.703 165.200,63.973 165.333,64.242 165.602 M346.808 165.500 C 336.628 165.735,340.855 166.200,354.323 166.326 L 367.800 166.451 367.901 233.849 C 367.968 278.522,368.137 301.163,368.401 300.999 C 369.171 300.523,368.927 167.366,368.154 166.186 L 367.508 165.200 359.854 165.287 C 355.644 165.335,349.773 165.431,346.808 165.500 M133.700 234.700 C 111.879 234.770,101.200 234.939,101.200 235.214 C 101.200 235.490,111.577 235.611,133.041 235.586 C 150.553 235.565,164.998 235.665,165.141 235.808 C 165.283 235.950,165.400 265.567,165.400 301.622 L 165.400 367.177 166.224 368.002 C 167.439 369.217,234.107 369.335,235.026 368.124 C 235.669 367.276,235.776 365.356,235.200 365.000 C 234.814 364.761,234.760 364.953,234.669 366.900 C 234.608 368.198,234.108 368.214,198.149 368.095 L 166.497 367.991 166.196 327.695 C 166.030 305.533,166.006 275.475,166.144 260.900 C 166.281 246.325,166.350 234.444,166.297 234.498 C 166.244 234.551,151.575 234.642,133.700 234.700 M234.800 235.191 C 234.800 235.442,246.204 235.586,266.665 235.595 C 289.423 235.605,298.682 235.736,299.065 236.054 C 299.483 236.401,299.600 236.313,299.600 235.649 L 299.600 234.800 267.200 234.800 C 246.382 234.800,234.800 234.940,234.800 235.191 M299.100 237.028 C 298.935 237.196,298.827 240.948,298.861 245.367 L 298.921 253.400 299.261 246.000 C 299.620 238.201,299.590 236.530,299.100 237.028 M101.482 238.667 C 101.265 239.019,101.347 262.489,101.633 281.400 C 101.706 286.240,101.867 278.770,101.991 264.800 C 102.198 241.422,102.125 237.628,101.482 238.667 M234.730 242.025 C 234.414 251.184,234.862 362.948,235.213 362.393 C 235.709 361.609,235.720 239.609,235.224 238.825 C 234.987 238.450,234.815 239.562,234.730 242.025 M299.379 266.800 C 299.379 274.170,299.433 277.185,299.499 273.500 C 299.565 269.815,299.565 263.785,299.499 260.100 C 299.433 256.415,299.379 259.430,299.379 266.800 M298.869 290.300 C 298.824 296.812,298.942 300.400,299.200 300.400 C 299.653 300.400,299.663 293.987,299.221 285.600 C 298.961 280.645,298.931 281.033,298.869 290.300 M101.720 294.800 C 101.720 296.010,101.795 296.505,101.887 295.900 C 101.978 295.295,101.978 294.305,101.887 293.700 C 101.795 293.095,101.720 293.590,101.720 294.800 M32.641 301.406 L 33.300 302.412 65.950 302.306 C 87.548 302.236,98.532 302.065,98.400 301.800 C 98.270 301.539,86.860 301.374,65.608 301.324 C 43.057 301.272,32.973 301.118,32.875 300.824 C 32.797 300.591,32.564 300.400,32.357 300.400 C 32.151 300.400,32.278 300.853,32.641 301.406 M98.933 301.837 C 98.933 302.166,99.258 302.313,99.767 302.217 C 100.225 302.130,100.746 302.046,100.924 302.030 C 101.102 302.013,101.150 301.843,101.031 301.650 C 100.684 301.089,98.933 301.246,98.933 301.837 M299.785 301.624 C 299.378 302.283,300.919 302.317,333.365 302.378 C 363.090 302.433,366.478 302.376,366.023 301.828 C 365.462 301.151,300.201 300.951,299.785 301.624 M366.800 301.800 C 366.800 302.167,366.994 302.402,367.230 302.323 C 367.466 302.245,367.660 302.009,367.660 301.800 C 367.660 301.591,367.466 301.356,367.230 301.277 C 366.994 301.198,366.800 301.433,366.800 301.800 " stroke="none" fill="#e0e48c" fill-rule="evenodd"></path></g></svg>